<svg width="50" height="50" viewBox="0 0 50 50" fill="none" xmlns="http://www.w3.org/2000/svg">
<path d="M25 50C21.5417 50 18.2917 49.3438 15.25 48.0312C12.2083 46.7188 9.5625 44.9375 7.3125 42.6875C5.0625 40.4375 3.28125 37.7917 1.96875 34.75C0.65625 31.7083 0 28.4583 0 25C0 21.5417 0.65625 18.2917 1.96875 15.25C3.28125 12.2083 5.0625 9.5625 7.3125 7.3125C9.5625 5.0625 12.2083 3.28125 15.25 1.96875C18.2917 0.65625 21.5417 0 25 0C28.4583 0 31.7083 0.65625 34.75 1.96875C37.7917 3.28125 40.4375 5.0625 42.6875 7.3125C44.9375 9.5625 46.7188 12.2083 48.0312 15.25C49.3438 18.2917 50 21.5417 50 25C50 28.4583 49.3438 31.7083 48.0312 34.75C46.7188 37.7917 44.9375 40.4375 42.6875 42.6875C40.4375 44.9375 37.7917 46.7188 34.75 48.0312C31.7083 49.3438 28.4583 50 25 50ZM37.5 18.75L40.875 17.625L41.875 14.25C40.5417 12.25 38.9375 10.5312 37.0625 9.09375C35.1875 7.65625 33.125 6.58333 30.875 5.875L27.5 8.25V11.75L37.5 18.75ZM12.5 18.75L22.5 11.75V8.25L19.125 5.875C16.875 6.58333 14.8125 7.65625 12.9375 9.09375C11.0625 10.5312 9.45833 12.25 8.125 14.25L9.125 17.625L12.5 18.75ZM9.875 38L12.75 37.75L14.625 34.375L11 23.5L7.5 22.25L5 24.125C5 26.8333 5.375 29.3021 6.125 31.5312C6.875 33.7604 8.125 35.9167 9.875 38ZM25 45C26.0833 45 27.1458 44.9167 28.1875 44.75C29.2292 44.5833 30.25 44.3333 31.25 44L33 40.25L31.375 37.5H18.625L17 40.25L18.75 44C19.75 44.3333 20.7708 44.5833 21.8125 44.75C22.8542 44.9167 23.9167 45 25 45ZM19.375 32.5H30.625L34.125 22.5L25 16.125L16 22.5L19.375 32.5ZM40.125 38C41.875 35.9167 43.125 33.7604 43.875 31.5312C44.625 29.3021 45 26.8333 45 24.125L42.5 22.375L39 23.5L35.375 34.375L37.25 37.75L40.125 38Z" fill="#CCFF00"/>
</svg>
